# 
# Wavefront OBJ file
# Converted by the DEEP Exploration 3.5.10.1242
# Right Hemisphere, LTD
# http://www.righthemisphere.com/
# 
mtllib arrow31.mtl
# object Mesh 
g Mesh_
v -1e-005 9.49367 -0.759491
v 4.74684 4.74684 -0.759491
v 0.949363 4.74684 -0.759491
v 0.949363 -9.49367 -0.759491
v -0.949383 -9.49367 -0.759491
v -0.949383 4.74684 -0.759491
v -4.74684 4.74684 -0.759491
v 0.949363 4.74684 0.759491
v 4.74684 4.74684 0.759491
v -1e-005 9.49367 0.759491
v -0.949383 -9.49367 0.759491
v 0.949363 -9.49367 0.759491
v -0.949383 4.74684 0.759491
v -4.74684 4.74684 0.759491
# 14 verticies
vt 0 0
# 1 texture verticies
vn 0 0 -1
vn 0 0 1
vn 0.707106 0.707108 0
vn 0 -1 0
vn 1 0 0
vn -1 0 0
vn -0.707108 0.707106 0
# 7 normals
usemtl mat__ACI__7
f  1/1/1 2/1/1 3/1/1
f  3/1/1 4/1/1 5/1/1 6/1/1
f  1/1/1 3/1/1 6/1/1
f  1/1/1 6/1/1 7/1/1
f  8/1/2 9/1/2 10/1/2
f  11/1/2 12/1/2 8/1/2 13/1/2
f  13/1/2 8/1/2 10/1/2
f  14/1/2 13/1/2 10/1/2
f  10/1/3 9/1/3 2/1/3 1/1/3
f  9/1/4 8/1/4 3/1/4 2/1/4
f  8/1/5 12/1/5 4/1/5 3/1/5
f  12/1/4 11/1/4 5/1/4 4/1/4
f  11/1/6 13/1/6 6/1/6 5/1/6
f  13/1/4 14/1/4 7/1/4 6/1/4
f  14/1/7 10/1/7 1/1/7 7/1/7
